# xmcd CD database file
#
# Track frame offsets:
#	150
#	14815
#	32637
#	46095
#	60920
#	76220
#	90785
#	106442
#	120202
#	138195
#	156327
#	173815
#	190402
#
# Disc length: 2628 seconds
#
# Revision: 22
# Processed by: cddbd v1.5.2PL0 Copyright (c) Steve Scherf et al.
# Submitted via: CDex 1.51
#
DISCID=950a420d
DTITLE=Toby Keith - Unleashed
DYEAR=2002
DGENRE=Country
TTITLE0=Toby Keith - Courtesy Of The Red, White And Blue (The Angry American)
TTITLE1=Toby Keith - Who's Your Daddy?
TTITLE2=Toby Keith - Good To Go To Mexico
TTITLE3=Toby Keith - It's All Good
TTITLE4=Toby Keith with Willy Nelson - Beer For My Horses
TTITLE5=Toby Keith - Losing My Touch
TTITLE6=Toby Keith - Huckleberry
TTITLE7=Toby Keith - It Works For Me
TTITLE8=Toby Keith - Ain't It Just Like You
TTITLE9=Toby Keith - Rock You Baby
TTITLE10=Toby Keith - Rodeo Moon
TTITLE11=Toby Keith - That's Not How It Is
TTITLE12=Toby Keith - Courtesy Of The Red, White And Blue (The Angry American) (Live Introduction)
EXTD=YEAR: 2002
EXTT0=
EXTT1=
EXTT2=
EXTT3=
EXTT4=
EXTT5=
EXTT6=
EXTT7=
EXTT8=
EXTT9=
EXTT10=
EXTT11=
EXTT12=
PLAYORDER=
